<svg width="532" height="290" viewBox="0 0 532 290" fill="none" xmlns="http://www.w3.org/2000/svg">
<path d="M362.881 205.594C362.881 205.594 415.875 221.879 439.273 193.18C462.672 164.48 490.714 189.301 485.255 231.192" stroke="url(#paint0_radial)" stroke-width="1.82" stroke-miterlimit="10"/>
<path d="M408.708 49.649H123.79C117.414 49.649 112.245 54.794 112.245 61.1407V229.773C112.245 236.12 117.414 241.265 123.79 241.265H408.708C415.084 241.265 420.253 236.12 420.253 229.773V61.1407C420.253 54.794 415.084 49.649 408.708 49.649Z" fill="url(#paint1_radial)"/>
<path d="M409.987 59.2439H120.245V231.482H409.987V59.2439Z" fill="url(#paint2_linear)"/>
<path d="M427.96 251.919H107.121C103.493 251.908 100.018 250.469 97.4528 247.916C94.8878 245.362 93.4417 241.903 93.4304 238.292H441.651C441.64 241.903 440.194 245.362 437.629 247.916C435.064 250.469 431.588 251.908 427.96 251.919Z" fill="url(#paint3_radial)"/>
<path d="M311.192 241.701H221.323C220.306 241.701 219.33 241.298 218.61 240.582C217.891 239.866 217.487 238.894 217.487 237.882H315.029C315.029 238.894 314.624 239.866 313.905 240.582C313.185 241.298 312.209 241.701 311.192 241.701V241.701Z" fill="url(#paint4_radial)"/>
<path d="M208.748 159.952C208.563 157.903 208.166 155.879 207.564 153.911V153.911C205.997 148.809 203.087 144.216 199.135 140.611C195.184 137.005 190.335 134.517 185.093 133.406H185.05C183.006 132.979 180.923 132.765 178.835 132.765C178.389 132.765 177.977 132.765 177.513 132.765C167.108 132.488 156.742 134.133 146.939 137.618C131.821 142.69 115.449 142.69 100.331 137.618C90.5289 134.133 80.1623 132.488 69.7572 132.765C69.3194 132.765 68.8989 132.765 68.4354 132.765C66.3472 132.765 64.2647 132.979 62.221 133.406V133.406C56.9781 134.517 52.1295 137.005 48.1782 140.611C44.2269 144.216 41.3167 148.809 39.7496 153.911V153.911C39.1477 155.879 38.7508 157.903 38.5651 159.952C34.4021 181.876 22.3338 255.636 46.3674 253.03C62.178 251.321 73.9459 233.695 81.2332 218.529C83.9407 220.222 86.985 221.31 90.1559 221.717C93.3268 222.125 96.5488 221.842 99.5993 220.889C102.65 219.936 105.456 218.336 107.825 216.198C110.193 214.06 112.068 211.436 113.318 208.507C116.504 206.789 120.009 205.737 123.618 205.414C127.228 205.734 130.733 206.787 133.918 208.507C135.169 211.435 137.043 214.058 139.411 216.195C141.779 218.332 144.584 219.932 147.634 220.885C150.683 221.837 153.904 222.12 157.074 221.714C160.244 221.307 163.287 220.221 165.994 218.529C173.282 233.695 185.05 251.321 200.86 253.03C224.902 255.636 212.886 181.876 208.748 159.952Z" fill="url(#paint5_linear)"/>
<path d="M94.1856 215.847C99.6704 215.847 104.117 211.421 104.117 205.961C104.117 200.502 99.6704 196.076 94.1856 196.076C88.7009 196.076 84.2546 200.502 84.2546 205.961C84.2546 211.421 88.7009 215.847 94.1856 215.847Z" fill="url(#paint6_linear)"/>
<g style="mix-blend-mode:screen" opacity="0.13">
<path style="mix-blend-mode:screen" opacity="0.13" d="M81.9374 210.148C80.5366 207.549 80.0875 204.547 80.667 201.655C81.2529 198.707 82.827 196.044 85.1318 194.102C87.4365 192.16 90.3352 191.055 93.3533 190.967C96.3135 190.862 99.217 191.793 101.559 193.598C99.0715 192.244 96.2383 191.65 93.4134 191.889C90.642 192.136 88.0151 193.23 85.8929 195.021C83.7707 196.812 82.2571 199.213 81.5597 201.894C80.8748 204.623 81.0061 207.492 81.9374 210.148V210.148Z" fill="url(#paint7_linear)"/>
</g>
<g style="mix-blend-mode:screen" opacity="0.13">
<path style="mix-blend-mode:screen" opacity="0.13" d="M83.8943 156.492C86.0588 159.906 87.0275 163.938 86.6496 167.958C86.2745 172.007 84.5702 175.82 81.7999 178.808C79.0442 181.794 75.373 183.788 71.3593 184.479C67.3455 185.17 63.2148 184.519 59.6118 182.628C63.253 184.292 67.3281 184.773 71.2595 184.003C74.1559 183.403 76.8701 182.134 79.1833 180.298C81.4965 178.462 83.344 176.111 84.5768 173.433C85.8096 170.756 86.3932 167.828 86.2806 164.886C86.1681 161.943 85.3624 159.068 83.9286 156.492H83.8943Z" fill="url(#paint8_linear)"/>
</g>
<g style="mix-blend-mode:screen" opacity="0.13">
<path style="mix-blend-mode:screen" opacity="0.13" d="M140.201 210.148C138.801 207.549 138.351 204.547 138.931 201.655C139.517 198.707 141.091 196.044 143.396 194.102C145.7 192.16 148.599 191.055 151.617 190.967C154.577 190.862 157.481 191.793 159.823 193.598C157.335 192.244 154.502 191.65 151.677 191.889C148.912 192.143 146.293 193.24 144.177 195.03C142.062 196.821 140.553 199.218 139.858 201.894C139.162 204.62 139.281 207.489 140.201 210.148V210.148Z" fill="url(#paint9_linear)"/>
</g>
<path d="M152.45 215.847C157.935 215.847 162.381 211.421 162.381 205.961C162.381 200.502 157.935 196.076 152.45 196.076C146.965 196.076 142.519 200.502 142.519 205.961C142.519 211.421 146.965 215.847 152.45 215.847Z" fill="url(#paint10_linear)"/>
<path d="M68.5899 164.01C67.4741 162.139 65.1566 157.936 64.5472 153.834C64.5472 153.834 69.3882 150.417 73.534 153.834C72.9025 157.412 71.6631 160.856 69.8689 164.019C69.8017 164.128 69.7073 164.218 69.5948 164.28C69.4824 164.343 69.3556 164.375 69.227 164.374C69.0983 164.373 68.9721 164.339 68.8604 164.276C68.7488 164.212 68.6556 164.12 68.5899 164.01V164.01ZM68.5899 169.282C67.4741 171.153 65.1566 175.357 64.5472 179.466C64.5472 179.466 69.3882 182.884 73.534 179.466C72.9025 175.889 71.6631 172.445 69.8689 169.282C69.8024 169.172 69.7086 169.082 69.5966 169.019C69.4846 168.956 69.3581 168.923 69.2294 168.923C69.1007 168.923 68.9743 168.956 68.8622 169.019C68.7502 169.082 68.6564 169.172 68.5899 169.282V169.282ZM66.4012 165.822C63.2217 164.04 59.7625 162.807 56.1697 162.173C52.7364 166.3 56.1697 171.119 56.1697 171.119C60.2898 170.478 64.5128 168.214 66.3926 167.095C66.5032 167.029 66.595 166.937 66.659 166.825C66.723 166.714 66.7571 166.589 66.758 166.461C66.7589 166.333 66.7265 166.206 66.6639 166.094C66.6014 165.982 66.5109 165.889 66.4012 165.822V165.822ZM71.6886 167.095C73.5683 168.214 77.7914 170.512 81.92 171.119C81.92 171.119 85.3533 166.3 81.92 162.173C78.3273 162.807 74.868 164.04 71.6886 165.822C71.5784 165.888 71.4872 165.981 71.424 166.093C71.3607 166.204 71.3274 166.33 71.3274 166.458C71.3274 166.586 71.3607 166.712 71.424 166.824C71.4872 166.935 71.5784 167.029 71.6886 167.095V167.095Z" fill="url(#paint11_radial)"/>
<path style="mix-blend-mode:multiply" opacity="0.37" d="M69.7316 178.253C76.2214 178.253 81.4823 173.016 81.4823 166.556C81.4823 160.096 76.2214 154.86 69.7316 154.86C63.2419 154.86 57.981 160.096 57.981 166.556C57.981 173.016 63.2419 178.253 69.7316 178.253Z" fill="url(#paint12_radial)"/>
<path d="M187.925 176.211C186.933 176.213 185.963 175.921 185.137 175.374C184.311 174.826 183.667 174.047 183.287 173.135C182.907 172.223 182.807 171.219 183 170.25C183.193 169.281 183.67 168.392 184.372 167.693C185.074 166.995 185.968 166.519 186.941 166.327C187.914 166.135 188.922 166.234 189.839 166.613C190.755 166.992 191.538 167.633 192.088 168.455C192.638 169.277 192.931 170.242 192.929 171.23C192.929 172.551 192.402 173.818 191.464 174.752C190.525 175.686 189.252 176.211 187.925 176.211V176.211Z" fill="url(#paint13_linear)"/>
<path d="M171.368 159.73C171.368 158.745 171.661 157.782 172.211 156.962C172.761 156.143 173.542 155.505 174.457 155.128C175.371 154.751 176.377 154.652 177.348 154.844C178.319 155.037 179.21 155.511 179.91 156.208C180.61 156.904 181.087 157.792 181.28 158.758C181.473 159.724 181.374 160.726 180.995 161.636C180.616 162.546 179.975 163.324 179.152 163.871C178.329 164.419 177.362 164.711 176.372 164.711C175.045 164.711 173.772 164.186 172.833 163.252C171.895 162.318 171.368 161.051 171.368 159.73V159.73Z" fill="url(#paint14_linear)"/>
<path d="M171.368 182.73C171.368 181.745 171.661 180.782 172.211 179.963C172.761 179.144 173.542 178.505 174.457 178.128C175.371 177.751 176.377 177.653 177.348 177.845C178.319 178.037 179.21 178.511 179.91 179.208C180.61 179.905 181.087 180.792 181.28 181.758C181.473 182.725 181.374 183.726 180.995 184.636C180.616 185.547 179.975 186.325 179.152 186.872C178.329 187.419 177.362 187.711 176.372 187.711C175.045 187.711 173.772 187.187 172.833 186.252C171.895 185.318 171.368 184.051 171.368 182.73V182.73Z" fill="url(#paint15_linear)"/>
<path d="M164.819 176.211C163.827 176.213 162.856 175.921 162.031 175.374C161.205 174.826 160.561 174.047 160.181 173.135C159.8 172.223 159.7 171.219 159.893 170.25C160.086 169.281 160.564 168.392 161.266 167.693C161.967 166.995 162.861 166.519 163.834 166.327C164.807 166.135 165.816 166.234 166.732 166.613C167.649 166.992 168.431 167.633 168.982 168.455C169.532 169.277 169.824 170.242 169.823 171.23C169.823 172.551 169.296 173.818 168.357 174.752C167.419 175.686 166.146 176.211 164.819 176.211V176.211Z" fill="url(#paint16_linear)"/>
<path d="M116.88 176.715H109.516C109.179 176.715 108.906 176.987 108.906 177.322V177.937C108.906 178.272 109.179 178.544 109.516 178.544H116.88C117.217 178.544 117.49 178.272 117.49 177.937V177.322C117.49 176.987 117.217 176.715 116.88 176.715Z" fill="url(#paint17_linear)"/>
<path d="M135.892 176.715H128.528C128.191 176.715 127.918 176.987 127.918 177.322V177.937C127.918 178.272 128.191 178.544 128.528 178.544H135.892C136.229 178.544 136.502 178.272 136.502 177.937V177.322C136.502 176.987 136.229 176.715 135.892 176.715Z" fill="url(#paint18_linear)"/>
<g style="mix-blend-mode:screen" opacity="0.13">
<path style="mix-blend-mode:screen" opacity="0.13" d="M43.2861 159.627C43.9303 155.94 45.2669 152.407 47.2259 149.212C49.1741 145.965 51.7713 143.15 54.8566 140.942C57.9614 138.755 61.5043 137.263 65.2425 136.567C68.9274 135.893 72.7005 135.847 76.4009 136.43C72.7108 136.32 69.0217 136.679 65.4228 137.498C63.6539 137.921 61.9294 138.51 60.2727 139.258C58.6085 139.981 57.026 140.878 55.5518 141.933C52.5912 144.054 50.0408 146.691 48.0242 149.716C47.0041 151.237 46.0975 152.831 45.3118 154.484C44.4943 156.139 43.8167 157.86 43.2861 159.627V159.627Z" fill="url(#paint19_linear)"/>
</g>
<g style="mix-blend-mode:screen" opacity="0.13">
<path style="mix-blend-mode:screen" opacity="0.13" d="M207.959 245.4C208.49 243.604 208.928 241.782 209.272 239.941C209.641 238.104 209.925 236.258 210.182 234.413C210.68 230.705 210.98 226.988 211.143 223.263C211.143 221.392 211.272 219.529 211.229 217.658C211.229 216.727 211.229 215.795 211.229 214.864L211.143 212.062C211.143 211.122 211.066 210.19 211.006 209.259L210.852 206.448C210.74 204.577 210.525 202.715 210.431 200.835C210.8 202.68 211.135 204.526 211.452 206.388C211.77 208.251 211.976 210.122 212.096 212.002C212.422 215.76 212.517 219.535 212.379 223.306C212.235 227.079 211.83 230.839 211.169 234.558C210.517 238.282 209.44 241.92 207.959 245.4V245.4Z" fill="url(#paint20_linear)"/>
</g>
<g style="mix-blend-mode:screen" opacity="0.16">
<path d="M99.7047 203.432C99.0266 204.594 96.6919 204.517 94.4946 203.253C92.2972 201.988 91.0612 200.023 91.7393 198.853C92.4174 197.682 94.7521 197.759 96.9494 199.024C99.1468 200.288 100.383 202.262 99.7047 203.432Z" fill="white"/>
</g>
<g style="mix-blend-mode:screen" opacity="0.16">
<path d="M158.587 204.654C157.909 205.816 155.574 205.739 153.377 204.475C151.18 203.21 149.944 201.236 150.613 200.075C151.283 198.913 153.626 198.981 155.823 200.245C158.021 201.51 159.257 203.484 158.587 204.654Z" fill="white"/>
</g>
<path d="M453.281 249.809H521.09C521.09 249.809 532.781 241.265 527.33 228.868C522.91 218.811 495.975 209.14 485.152 210.464C474.328 211.788 429.128 224.963 453.281 249.809Z" fill="url(#paint21_radial)"/>
<path d="M524.206 248.254H449.385V250.578H524.206V248.254Z" fill="url(#paint22_linear)"/>
<defs>
<radialGradient id="paint0_radial" cx="0" cy="0" r="1" gradientUnits="userSpaceOnUse" gradientTransform="translate(67647.6 18387.1) scale(6809.08 2787.29)">
<stop stop-color="#310262"/>
<stop offset="1" stop-color="#020028"/>
</radialGradient>
<radialGradient id="paint1_radial" cx="0" cy="0" r="1" gradientUnits="userSpaceOnUse" gradientTransform="translate(95653 32672.3) scale(46081 28667.7)">
<stop stop-color="#310262"/>
<stop offset="1" stop-color="#020028"/>
</radialGradient>
<linearGradient id="paint2_linear" x1="45" y1="-24" x2="619.566" y2="396.145" gradientUnits="userSpaceOnUse">
<stop stop-color="white"/>
<stop offset="1" stop-color="#002653"/>
</linearGradient>
<radialGradient id="paint3_radial" cx="0" cy="0" r="1" gradientUnits="userSpaceOnUse" gradientTransform="translate(267.536 244.506) scale(213.821 74.4936)">
<stop stop-color="#310262"/>
<stop offset="1" stop-color="#020028"/>
</radialGradient>
<radialGradient id="paint4_radial" cx="0" cy="0" r="1" gradientUnits="userSpaceOnUse" gradientTransform="translate(35545.2 1770.7) scale(3922.16 153.569)">
<stop stop-color="#310262"/>
<stop offset="1" stop-color="#020028"/>
</radialGradient>
<linearGradient id="paint5_linear" x1="-71.191" y1="277.235" x2="190.309" y2="168.388" gradientUnits="userSpaceOnUse">
<stop stop-color="#020028"/>
<stop offset="1" stop-color="#310262"/>
</linearGradient>
<linearGradient id="paint6_linear" x1="15533.7" y1="-4740.53" x2="15857.2" y2="-5065.51" gradientUnits="userSpaceOnUse">
<stop stop-color="#A50ADF"/>
<stop offset="1" stop-color="#E670F4"/>
</linearGradient>
<linearGradient id="paint7_linear" x1="3125.65" y1="7180.06" x2="3547.38" y2="6715.49" gradientUnits="userSpaceOnUse">
<stop stop-color="#A50ADF"/>
<stop offset="1" stop-color="#E670F4"/>
</linearGradient>
<linearGradient id="paint8_linear" x1="4240.62" y1="8829.15" x2="3499.25" y2="9738.78" gradientUnits="userSpaceOnUse">
<stop stop-color="#A50ADF"/>
<stop offset="1" stop-color="#E670F4"/>
</linearGradient>
<linearGradient id="paint9_linear" x1="4618.81" y1="7180.06" x2="5040.53" y2="6715.49" gradientUnits="userSpaceOnUse">
<stop stop-color="#A50ADF"/>
<stop offset="1" stop-color="#E670F4"/>
</linearGradient>
<linearGradient id="paint10_linear" x1="16923.2" y1="-4781.54" x2="17246.7" y2="-5106.52" gradientUnits="userSpaceOnUse">
<stop stop-color="#A50ADF"/>
<stop offset="1" stop-color="#E670F4"/>
</linearGradient>
<radialGradient id="paint11_radial" cx="0" cy="0" r="1" gradientUnits="userSpaceOnUse" gradientTransform="translate(3868.62 9204.81) scale(483.588 481.366)">
<stop stop-color="#A50ADF"/>
<stop offset="1" stop-color="#E670F4"/>
</radialGradient>
<radialGradient id="paint12_radial" cx="0" cy="0" r="1" gradientUnits="userSpaceOnUse" gradientTransform="translate(1967.23 4715.18) scale(321.734 320.256)">
<stop stop-color="#A50ADF"/>
<stop offset="1" stop-color="#E670F4"/>
</radialGradient>
<linearGradient id="paint13_linear" x1="191.461" y1="174.759" x2="184.413" y2="167.677" gradientUnits="userSpaceOnUse">
<stop stop-color="#87A9F4"/>
<stop offset="1" stop-color="#2C56DF"/>
</linearGradient>
<linearGradient id="paint14_linear" x1="179.908" y1="163.25" x2="172.868" y2="156.169" gradientUnits="userSpaceOnUse">
<stop stop-color="#FFEF3F"/>
<stop offset="1" stop-color="#FB9914"/>
</linearGradient>
<linearGradient id="paint15_linear" x1="179.908" y1="186.25" x2="172.868" y2="179.169" gradientUnits="userSpaceOnUse">
<stop stop-color="#3BC6A3"/>
<stop offset="1" stop-color="#299352"/>
</linearGradient>
<linearGradient id="paint16_linear" x1="168.355" y1="174.75" x2="161.306" y2="167.677" gradientUnits="userSpaceOnUse">
<stop stop-color="#E6368F"/>
<stop offset="1" stop-color="#A10A4C"/>
</linearGradient>
<linearGradient id="paint17_linear" x1="1197.97" y1="556.843" x2="1283.8" y2="556.843" gradientUnits="userSpaceOnUse">
<stop stop-color="#A50ADF"/>
<stop offset="1" stop-color="#E670F4"/>
</linearGradient>
<linearGradient id="paint18_linear" x1="1407.1" y1="556.843" x2="1492.94" y2="556.843" gradientUnits="userSpaceOnUse">
<stop stop-color="#A50ADF"/>
<stop offset="1" stop-color="#E670F4"/>
</linearGradient>
<linearGradient id="paint19_linear" x1="3411.39" y1="7068.64" x2="4714.13" y2="7068.64" gradientUnits="userSpaceOnUse">
<stop stop-color="#A50ADF"/>
<stop offset="1" stop-color="#E670F4"/>
</linearGradient>
<linearGradient id="paint20_linear" x1="1523.75" y1="17217.7" x2="1550.19" y2="17217.7" gradientUnits="userSpaceOnUse">
<stop stop-color="#A50ADF"/>
<stop offset="1" stop-color="#E670F4"/>
</linearGradient>
<radialGradient id="paint21_radial" cx="0" cy="0" r="1" gradientUnits="userSpaceOnUse" gradientTransform="translate(498.825 222.707) scale(80.1347 79.7667)">
<stop stop-color="#3D0279"/>
<stop offset="1" stop-color="#271A30"/>
</radialGradient>
<linearGradient id="paint22_linear" x1="449.385" y1="249.416" x2="524.206" y2="249.416" gradientUnits="userSpaceOnUse">
<stop stop-color="#76FBFF"/>
<stop offset="0.35" stop-color="#3E92FA"/>
<stop offset="1" stop-color="#C053F4"/>
</linearGradient>
</defs>
</svg>
